<mxfile host="app.diagrams.net" modified="2022-06-25T15:08:07.810Z" agent="5.0 (Windows NT 10.0; Win64; x64) AppleWebKit/537.36 (KHTML, like Gecko) Chrome/103.0.5060.53 Safari/537.36 Edg/103.0.1264.37" etag="7xQefnM03Oj7drT77rpR" version="20.0.3" type="github">
  <diagram id="U_paM8OxLwR11u6vjeap" name="Page-1">
    <mxGraphModel dx="1422" dy="762" grid="1" gridSize="10" guides="1" tooltips="1" connect="1" arrows="1" fold="1" page="1" pageScale="1" pageWidth="827" pageHeight="1169" math="0" shadow="0">
      <root>
        <mxCell id="0" />
        <mxCell id="1" parent="0" />
        <mxCell id="TsfCPlx0A-p-hAjdHoSZ-2" value="press H&lt;br&gt;press uparrow" style="rounded=1;whiteSpace=wrap;html=1;arcSize=40;fontColor=#000000;fillColor=#ffffc0;strokeColor=#ff0000;" vertex="1" parent="1">
          <mxGeometry x="115" y="660" width="120" height="40" as="geometry" />
        </mxCell>
        <mxCell id="TsfCPlx0A-p-hAjdHoSZ-3" value="" style="edgeStyle=orthogonalEdgeStyle;html=1;verticalAlign=bottom;endArrow=open;endSize=8;strokeColor=#ff0000;rounded=0;" edge="1" source="TsfCPlx0A-p-hAjdHoSZ-2" parent="1">
          <mxGeometry relative="1" as="geometry">
            <mxPoint x="175" y="720" as="targetPoint" />
          </mxGeometry>
        </mxCell>
        <mxCell id="TsfCPlx0A-p-hAjdHoSZ-4" value="" style="edgeStyle=orthogonalEdgeStyle;html=1;verticalAlign=bottom;endArrow=open;endSize=8;strokeColor=#ff0000;rounded=0;exitX=0.5;exitY=1;exitDx=0;exitDy=0;" edge="1" parent="1">
          <mxGeometry relative="1" as="geometry">
            <mxPoint x="175" y="660" as="targetPoint" />
            <mxPoint x="175" y="585" as="sourcePoint" />
          </mxGeometry>
        </mxCell>
        <mxCell id="TsfCPlx0A-p-hAjdHoSZ-5" value="&lt;span style=&quot;text-align: left;&quot;&gt;RaiseActionEvent(fighting,true)&lt;/span&gt;" style="rounded=1;whiteSpace=wrap;html=1;arcSize=40;fontColor=#000000;fillColor=#ffffc0;strokeColor=#ff0000;" vertex="1" parent="1">
          <mxGeometry x="280" y="600" width="170" height="30" as="geometry" />
        </mxCell>
        <mxCell id="TsfCPlx0A-p-hAjdHoSZ-6" value="" style="endArrow=open;endFill=1;endSize=12;html=1;rounded=0;" edge="1" parent="1">
          <mxGeometry width="160" relative="1" as="geometry">
            <mxPoint x="180" y="619.5" as="sourcePoint" />
            <mxPoint x="280" y="620" as="targetPoint" />
          </mxGeometry>
        </mxCell>
        <mxCell id="TsfCPlx0A-p-hAjdHoSZ-7" value="npcNameFinder.CountNpc()" style="rounded=1;whiteSpace=wrap;html=1;arcSize=40;fontColor=#000000;fillColor=#ffffc0;strokeColor=#ff0000;" vertex="1" parent="1">
          <mxGeometry x="97.5" y="720" width="155" height="40" as="geometry" />
        </mxCell>
        <mxCell id="TsfCPlx0A-p-hAjdHoSZ-8" value="Pull Spell?" style="rhombus;whiteSpace=wrap;html=1;fillColor=#ffffc0;strokeColor=#ff0000;" vertex="1" parent="1">
          <mxGeometry x="110" y="780" width="130" height="60" as="geometry" />
        </mxCell>
        <mxCell id="TsfCPlx0A-p-hAjdHoSZ-9" value="&lt;span style=&quot;font-size: 12px; text-align: center; background-color: rgb(248, 249, 250);&quot;&gt;SpellInRange.&lt;/span&gt;&lt;span style=&quot;font-size: 12px; text-align: center; background-color: rgb(248, 249, 250);&quot;&gt;Throw&lt;/span&gt;" style="edgeStyle=orthogonalEdgeStyle;html=1;align=left;verticalAlign=bottom;endArrow=open;endSize=8;strokeColor=#ff0000;rounded=0;entryX=0.5;entryY=0;entryDx=0;entryDy=0;" edge="1" source="TsfCPlx0A-p-hAjdHoSZ-8" parent="1" target="TsfCPlx0A-p-hAjdHoSZ-13">
          <mxGeometry x="-0.2" y="10" relative="1" as="geometry">
            <mxPoint x="340" y="810" as="targetPoint" />
            <mxPoint as="offset" />
          </mxGeometry>
        </mxCell>
        <mxCell id="TsfCPlx0A-p-hAjdHoSZ-10" value="&lt;span style=&quot;font-size: 12px; text-align: center; background-color: rgb(248, 249, 250);&quot;&gt;SpellInRange.Charge&lt;/span&gt;&lt;br style=&quot;font-size: 12px; text-align: center; background-color: rgb(248, 249, 250);&quot;&gt;&lt;span style=&quot;font-size: 12px; text-align: center; background-color: rgb(248, 249, 250);&quot;&gt;&amp;amp;&amp;amp;CountNpc&amp;lt;2&lt;/span&gt;" style="edgeStyle=orthogonalEdgeStyle;html=1;align=left;verticalAlign=top;endArrow=open;endSize=8;strokeColor=#ff0000;rounded=0;" edge="1" source="TsfCPlx0A-p-hAjdHoSZ-8" parent="1">
          <mxGeometry x="-1" relative="1" as="geometry">
            <mxPoint x="175" y="890" as="targetPoint" />
            <Array as="points">
              <mxPoint x="175" y="890" />
            </Array>
          </mxGeometry>
        </mxCell>
        <mxCell id="TsfCPlx0A-p-hAjdHoSZ-11" value="" style="edgeStyle=orthogonalEdgeStyle;html=1;verticalAlign=bottom;endArrow=open;endSize=8;strokeColor=#ff0000;rounded=0;exitX=0.5;exitY=1;exitDx=0;exitDy=0;entryX=0.5;entryY=0;entryDx=0;entryDy=0;" edge="1" parent="1" source="TsfCPlx0A-p-hAjdHoSZ-7" target="TsfCPlx0A-p-hAjdHoSZ-8">
          <mxGeometry relative="1" as="geometry">
            <mxPoint x="185" y="730" as="targetPoint" />
            <mxPoint x="185" y="710" as="sourcePoint" />
            <Array as="points">
              <mxPoint x="175" y="770" />
              <mxPoint x="175" y="770" />
            </Array>
          </mxGeometry>
        </mxCell>
        <mxCell id="TsfCPlx0A-p-hAjdHoSZ-12" value="press Charge&lt;br&gt;" style="rounded=1;whiteSpace=wrap;html=1;arcSize=40;fontColor=#000000;fillColor=#ffffc0;strokeColor=#ff0000;" vertex="1" parent="1">
          <mxGeometry x="97.5" y="890" width="155" height="40" as="geometry" />
        </mxCell>
        <mxCell id="TsfCPlx0A-p-hAjdHoSZ-13" value="press Throw&lt;br&gt;Delay 3000" style="rounded=1;whiteSpace=wrap;html=1;arcSize=40;fontColor=#000000;fillColor=#ffffc0;strokeColor=#ff0000;" vertex="1" parent="1">
          <mxGeometry x="259" y="890" width="155" height="40" as="geometry" />
        </mxCell>
        <mxCell id="TsfCPlx0A-p-hAjdHoSZ-14" value="" style="ellipse;html=1;shape=endState;fillColor=#000000;strokeColor=#ff0000;" vertex="1" parent="1">
          <mxGeometry x="160" y="1010" width="30" height="30" as="geometry" />
        </mxCell>
        <mxCell id="TsfCPlx0A-p-hAjdHoSZ-15" value="" style="ellipse;html=1;shape=startState;fillColor=#000000;strokeColor=#ff0000;" vertex="1" parent="1">
          <mxGeometry x="160" y="555" width="30" height="30" as="geometry" />
        </mxCell>
        <mxCell id="TsfCPlx0A-p-hAjdHoSZ-17" value="" style="edgeStyle=orthogonalEdgeStyle;html=1;verticalAlign=bottom;endArrow=open;endSize=8;strokeColor=#ff0000;rounded=0;exitX=0.5;exitY=1;exitDx=0;exitDy=0;entryX=0.5;entryY=0;entryDx=0;entryDy=0;" edge="1" parent="1" source="TsfCPlx0A-p-hAjdHoSZ-12" target="TsfCPlx0A-p-hAjdHoSZ-14">
          <mxGeometry relative="1" as="geometry">
            <mxPoint x="185" y="670" as="targetPoint" />
            <mxPoint x="185" y="595" as="sourcePoint" />
          </mxGeometry>
        </mxCell>
        <mxCell id="TsfCPlx0A-p-hAjdHoSZ-18" value="" style="edgeStyle=orthogonalEdgeStyle;html=1;verticalAlign=bottom;endArrow=open;endSize=8;strokeColor=#ff0000;rounded=0;exitX=0.5;exitY=1;exitDx=0;exitDy=0;" edge="1" parent="1" source="TsfCPlx0A-p-hAjdHoSZ-13" target="TsfCPlx0A-p-hAjdHoSZ-14">
          <mxGeometry relative="1" as="geometry">
            <mxPoint x="235" y="1010" as="targetPoint" />
            <mxPoint x="235" y="930" as="sourcePoint" />
          </mxGeometry>
        </mxCell>
      </root>
    </mxGraphModel>
  </diagram>
</mxfile>
